<?xml version="1.0" encoding="UTF-8"?>
<svg width="640px" height="640px" viewBox="0 0 640 640" version="1.1" xmlns="http://www.w3.org/2000/svg" xmlns:xlink="http://www.w3.org/1999/xlink">
    <!-- Generator: Sketch 47.1 (45422) - http://www.bohemiancoding.com/sketch -->
    <title>客服头像-默认</title>
    <desc>Created with Sketch.</desc>
    <defs></defs>
    <g id="图片" stroke="none" stroke-width="1" fill="none" fill-rule="evenodd">
        <g id="客服头像-默认" fill-rule="nonzero" fill="#C9C9C9">
            <g id="客服" transform="translate(20.000000, 20.000000)">
                <path d="M300,135.161635 C192.588679,135.161635 105.208805,222.540881 105.208805,329.952201 C105.208805,437.357233 192.58805,524.744025 300,524.744025 C407.41195,524.744025 494.791195,437.357862 494.791195,329.95283 C494.791195,222.541509 407.41195,135.161635 300,135.161635 Z M300,494.777358 C209.115723,494.777358 135.17673,420.837107 135.17673,329.954088 C135.17673,239.071069 209.116981,165.130818 300,165.130818 C390.883019,165.130818 464.82327,239.07044 464.82327,329.954088 C464.82327,420.837736 390.883648,494.777358 300,494.777358 Z" id="Shape"></path>
                <path d="M569.71195,255.048428 L568.186164,255.048428 C553.948428,112.10566 439.128302,0.320125786 300,0.320125786 C160.871698,0.320125786 46.0515723,112.10566 31.8138365,255.047799 L30.2880503,255.047799 C13.7603774,255.047799 0.320125786,268.494969 0.320125786,285.015723 L0.320125786,374.919497 C0.320125786,391.440252 13.7603774,404.88805 30.2880503,404.88805 L60.2566038,404.88805 C76.7842767,404.88805 90.2245283,391.440252 90.2245283,374.919497 L90.2245283,285.015723 C90.2245283,269.106289 77.7238994,256.172327 62.0415094,255.228302 C75.9880503,128.77673 177.304403,30.2893082 299.999371,30.2893082 C422.69434,30.2893082 524.010692,128.77673 537.958491,255.228302 C522.274843,256.172327 509.774843,269.106289 509.774843,285.015723 L509.774843,374.919497 C509.774843,391.440252 523.215094,404.88805 539.742767,404.88805 L569.711321,404.88805 C586.238994,404.88805 599.679245,391.440252 599.679245,374.919497 L599.679245,285.015723 C599.677987,268.494969 586.237736,255.048428 569.710692,255.048428 L569.71195,255.048428 Z M60.2559748,374.919497 L30.2874214,374.919497 L30.2874214,285.015723 L60.2559748,285.015723 L60.2559748,374.919497 Z M569.71195,374.919497 L539.743396,374.919497 L539.743396,285.015723 L569.71195,285.015723 L569.71195,374.919497 Z M180.128302,569.71195 L419.872327,569.71195 L419.872327,599.679874 L180.128302,599.679874 L180.128302,569.71195 Z" id="Shape"></path>
            </g>
        </g>
    </g>
</svg>